Coordinates
version=1
nRows=12
nColumns=33
inDegrees=yes

Units are S.I. units (second, meters, Newtons, ...)
Angles are in degrees.

endheader
time	ground_thorax_rot_x	ground_thorax_rot_y	ground_thorax_rot_z	ground_thorax_tx	ground_thorax_ty	ground_thorax_tz	clav_prot_r	clav_elev_r	scapula_abduction_r	scapula_elevation_r	scapula_upward_rot_r	scapula_winging_r	shoulder_elv_r	plane_of_elev_r	axial_rot_r	elbow_flexion_r	pro_sup_r	wrist_flex_r	wrist_dev_r	clav_prot_l	clav_elev_l	scapula_abduction_l	scapula_elevation_l	scapula_upward_rot_l	scapula_winging_l	shoulder_elv_l	plane_of_elev_l	axial_rot_l	elbow_flexion_l	pro_sup_l	wrist_flex_l	wrist_dev_l
      7.94000000	    -17.26664813	    -43.28659748	     63.96416653	     58.53557907	    797.74238546	    -43.31319195	     45.00000000	    -45.00000000	     38.44822410	    -45.00000000	    -39.23927141	    354.29858942	   4175.30438181	    -90.00000000	    -16.76738551	   3938.76213874	    123.39607445	     10.59879296	     10.14888496	     -2.02592974	     31.86582570	    -27.38267594	    -45.00000000	    -45.00000000	   4405.80964430	  -5130.17254628	    133.95702470	   -110.85794804	   1790.15483707	    407.94343711	     12.34661388	    -14.07985838
      7.95000000	    -16.85036368	    -43.36674584	     64.60020198	     60.31523205	    796.44936478	    -43.11345305	     45.00000000	    -45.00000000	     38.33245500	    -45.00000000	    -39.78821067	    354.38339360	   4175.18891819	    -90.00000000	    -16.63992034	   3938.80712737	    123.70291911	     10.58224812	     10.11293359	     -2.05953221	     31.77968345	    -27.19017438	    -45.00000000	    -45.00000000	   4405.70818986	  -5130.30843689	    134.18362405	   -111.39855839	   1790.24370989	    407.92067973	     12.27181511	    -14.02750092
      7.96000000	    -16.49585716	    -43.40394879	     65.13330513	     62.02101766	    795.16397526	    -42.92905442	     45.00000000	    -45.00000000	     38.08305570	    -45.00000000	    -40.24120030	    354.48948576	   4175.16717809	    -90.00000000	    -16.60651953	   3938.97444663	    123.93598490	     10.53336365	     10.08033861	     -2.26015808	     31.83502098	    -26.96426597	    -45.00000000	    -45.00000000	   4405.74425819	  -5130.38485526	    134.16744381	   -112.00422769	   1790.21091313	    407.86303367	     12.23722198	    -13.96237509
      7.97000000	    -16.07571060	    -43.41946359	     65.73895962	     63.64535236	    793.89110112	    -42.76455397	     45.00000000	    -45.00000000	     37.93786774	    -45.00000000	    -40.66910226	    354.55903901	   4175.06364033	    -90.00000000	    -16.49135835	   3939.12251493	    124.13779955	     10.53722504	     10.01279157	     -2.24129491	     31.74650474	    -26.76645984	    -45.00000000	    -45.00000000	   4405.61008934	  -5130.48515999	    134.40379246	   -112.51384410	   1790.24080646	    407.73247070	     12.18181091	    -13.89264913
      7.98000000	    -15.77188132	    -43.38775897	     66.16729278	     65.18311658	    792.63497738	    -42.62421121	     45.00000000	    -45.00000000	     37.82945814	    -45.00000000	    -41.14111391	    354.63312900	   4174.98447058	    -90.00000000	    -16.40024348	   3939.17755754	    124.30381645	     10.49381127	     10.03510348	     -2.47610205	     31.81685285	    -26.62132596	    -45.00000000	    -45.00000000	   4405.76841692	  -5130.60587932	    134.31352599	   -113.05512271	   1790.22898602	    407.54193632	     12.18116064	    -13.86554877
      7.99000000	    -15.38902484	    -43.32633725	     66.70382031	     66.63030442	    791.39973900	    -42.51160404	     45.00000000	    -45.00000000	     37.74121818	    -45.00000000	    -41.56381743	    354.62501491	   4174.91298754	    -90.00000000	    -16.31672077	   3939.29116866	    124.41016176	     10.57481511	      9.97375120	     -2.42571247	     31.72256354	    -26.46297112	    -45.00000000	    -45.00000000	   4405.60724190	  -5130.71751049	    134.55841406	   -113.55319425	   1790.20349471	    407.29543012	     12.14375756	    -13.78434256
      8.00000000	    -15.13647693	    -43.26156379	     67.03814440	     67.98174503	    790.19104876	    -42.42881988	     45.00000000	    -45.00000000	     37.49216229	    -45.00000000	    -41.88161807	    354.77767246	   4174.82700929	    -90.00000000	    -16.21897551	   3939.52865203	    124.47647920	     10.53196348	      9.92701634	     -2.69626909	     31.79538514	    -26.26815042	    -45.00000000	    -45.00000000	   4405.69758722	  -5130.75849958	    134.47542311	   -114.11010654	   1790.17023156	    407.00540439	     12.12947798	    -13.72082361
      8.01000000	    -14.75546645	    -43.17381898	     67.52730045	     69.23642923	    789.01111937	    -42.37615951	     45.00000000	    -45.00000000	     37.47166009	    -45.00000000	    -42.31238734	    354.77922092	   4174.68442266	    -90.00000000	    -16.06438088	   3939.62494197	    124.51554382	     10.59697671	      9.86887435	     -2.56069054	     31.69649614	    -26.13690014	    -45.00000000	    -45.00000000	   4405.56866953	  -5130.88175761	    134.71861270	   -114.49556789	   1790.17201667	    406.65235397	     12.09957077	    -13.65959338
      8.02000000	    -14.53628273	    -43.06199103	     67.77167428	     70.39408092	    787.86185665	    -42.35178514	     45.00000000	    -45.00000000	     37.35807128	    -45.00000000	    -42.66295177	    354.85756772	   4174.59803405	    -90.00000000	    -15.96569583	   3939.72048879	    124.51178840	     10.59709506	      9.86685882	     -2.87891486	     31.77219162	    -26.00725530	    -45.00000000	    -45.00000000	   4405.71944771	  -5130.96844415	    134.61143381	   -114.93243973	   1790.11505280	    406.26815974	     12.11495740	    -13.61545825
      8.03000000	    -14.21178502	    -42.93077735	     68.18592609	     71.45585347	    786.74464842	    -42.35283375	     45.00000000	    -45.00000000	     37.26568034	    -45.00000000	    -43.03192809	    354.86355355	   4174.47803139	    -90.00000000	    -15.83359242	   3939.90550514	    124.46646375	     10.71474034	      9.75511368	     -2.73145372	     31.68149405	    -25.84642247	    -45.00000000	    -45.00000000	   4405.52511414	  -5131.02056214	    134.86145502	   -115.30031363	   1790.06870695	    405.86257958	     12.07855029	    -13.52240251
      8.04000000	    -14.01545794	    -42.81760963	     68.36436320	     72.42309344	    785.66206634	    -42.37574183	     45.00000000	    -45.00000000	     37.16315785	    -45.00000000	    -43.32405887	    354.95026209	   4174.34957183	    -90.00000000	    -15.69266796	   3940.05408755	    124.40713683	     10.68163248	      9.72534586	     -3.02299428	     31.75543713	    -25.71117785	    -45.00000000	    -45.00000000	   4405.70739495	  -5131.11530884	    134.75318232	   -115.62912761	   1789.99870801	    405.43232701	     12.10485000	    -13.48167301
      8.05000000	    -13.75759115	    -42.62000391	     68.65634897	     73.29708526	    784.61846655	    -42.41774841	     45.00000000	    -45.00000000	     37.12457525	    -45.00000000	    -43.63812216	    354.93861109	   4174.22130355	    -90.00000000	    -15.55212825	   3940.20850460	    124.32516056	     10.84350500	      9.60443102	     -2.89226750	     31.66059389	    -25.60561534	    -45.00000000	    -45.00000000	   4405.50560849	  -5131.17318214	    134.96632768	   -115.91856662	   1789.95026470	    405.00336141	     12.08767172	    -13.41123099
